<svg xmlns="http://www.w3.org/2000/svg" width="768" height="512" fill="none"><path fill="#000" d="M760 0a8 8 0 0 1 8 8v496a8 8 0 0 1-8 8H8a8 8 0 0 1-8-8V8a8 8 0 0 1 8-8h752ZM567 500.001a3 3 0 1 0 0 6 3 3 0 0 0 0-6Zm12 0a3 3 0 1 0 0 6 3 3 0 0 0 0-6Zm12 0a3 3 0 1 0 0 6 3 3 0 0 0 0-6Zm12 0a3 3 0 1 0 0 6 3 3 0 0 0 0-6Zm12 0a3 3 0 1 0 0 6 3 3 0 0 0 0-6Zm12 0a3 3 0 1 0 0 6 3 3 0 0 0 0-6Zm12 0a3 3 0 1 0 0 6 3 3 0 0 0 0-6Zm12 0a3 3 0 1 0 0 6 3 3 0 0 0 0-6Zm12 0a3 3 0 1 0 0 6 3 3 0 0 0 0-6Zm12 0a3 3 0 1 0 0 6 3 3 0 0 0 0-6Zm12 0a3 3 0 1 0 0 6 3 3 0 0 0 0-6Zm12 0a3 3 0 1 0 0 6 3 3 0 0 0 0-6Zm12 0a3 3 0 1 0 0 6 3 3 0 0 0 0-6Zm12 0a3 3 0 1 0 0 6 3 3 0 0 0 0-6Zm12 0a3 3 0 1 0 0 6 3 3 0 0 0 0-6Zm12 0a3 3 0 1 0 0 6 3 3 0 0 0 0-6Zm12 0a3 3 0 1 0 0 6 3 3 0 0 0 0-6Zm-180-12a3 3 0 1 0 0 6 3 3 0 0 0 0-6Zm12 0a3 3 0 1 0 0 6 3 3 0 0 0 0-6Zm12 0a3 3 0 1 0 0 6 3 3 0 0 0 0-6Zm12 0a3 3 0 1 0 0 6 3 3 0 0 0 0-6Zm12 0a3 3 0 1 0 0 6 3 3 0 0 0 0-6Zm12 0a3 3 0 1 0 0 6 3 3 0 0 0 0-6Zm12 0a3 3 0 1 0 0 6 3 3 0 0 0 0-6Zm12 0a3 3 0 1 0 0 6 3 3 0 0 0 0-6Zm12 0a3 3 0 1 0 0 6 3 3 0 0 0 0-6Zm12 0a3 3 0 1 0 0 6 3 3 0 0 0 0-6Zm12 0a3 3 0 1 0 0 6 3 3 0 0 0 0-6Zm12 0a3 3 0 1 0 0 6 3 3 0 0 0 0-6Zm12 0a3 3 0 1 0 0 6 3 3 0 0 0 0-6Zm12 0a3 3 0 1 0 0 6 3 3 0 0 0 0-6Zm12 0a3 3 0 1 0 0 6 3 3 0 0 0 0-6Zm12 0a3 3 0 1 0 0 6 3 3 0 0 0 0-6Zm-168-12a3 3 0 1 0 0 6 3 3 0 0 0 0-6Zm12 0a3 3 0 1 0 0 6 3 3 0 0 0 0-6Zm12 0a3 3 0 1 0 0 6 3 3 0 0 0 0-6Zm12 0a3 3 0 1 0 0 6 3 3 0 0 0 0-6Zm12 0a3 3 0 1 0 0 6 3 3 0 0 0 0-6Zm12 0a3 3 0 1 0 0 6 3 3 0 0 0 0-6Zm12 0a3 3 0 1 0 0 6 3 3 0 0 0 0-6Zm12 0a3 3 0 1 0 0 6 3 3 0 0 0 0-6Zm12 0a3 3 0 1 0 0 6 3 3 0 0 0 0-6Zm12 0a3 3 0 1 0 0 6 3 3 0 0 0 0-6Zm12 0a3 3 0 1 0 0 6 3 3 0 0 0 0-6Zm12 0a3 3 0 1 0 0 6 3 3 0 0 0 0-6Zm12 0a3 3 0 1 0 0 6 3 3 0 0 0 0-6Zm12 0a3 3 0 1 0 0 6 3 3 0 0 0 0-6Zm12 0a3 3 0 1 0 0 6 3 3 0 0 0 0-6Zm-156-12a3 3 0 1 0 0 6 3 3 0 0 0 0-6Zm12 0a3 3 0 1 0 0 6 3 3 0 0 0 0-6Zm12 0a3 3 0 1 0 0 6 3 3 0 0 0 0-6Zm12 0a3 3 0 1 0 0 6 3 3 0 0 0 0-6Zm12 0a3 3 0 1 0 0 6 3 3 0 0 0 0-6Zm12 0a3 3 0 1 0 0 6 3 3 0 0 0 0-6Zm12 0a3 3 0 1 0 0 6 3 3 0 0 0 0-6Zm12 0a3 3 0 1 0 0 6 3 3 0 0 0 0-6Zm12 0a3 3 0 1 0 0 6 3 3 0 0 0 0-6Zm12 0a3 3 0 1 0 0 6 3 3 0 0 0 0-6Zm12 0a3 3 0 1 0 0 6 3 3 0 0 0 0-6Zm12 0a3 3 0 1 0 0 6 3 3 0 0 0 0-6Zm12 0a3 3 0 1 0 0 6 3 3 0 0 0 0-6Zm12 0a3 3 0 1 0 0 6 3 3 0 0 0 0-6Zm-144-12a3 3 0 1 0 0 6 3 3 0 0 0 0-6Zm12 0a3 3 0 1 0 0 6 3 3 0 0 0 0-6Zm12 0a3 3 0 1 0 0 6 3 3 0 0 0 0-6Zm12 0a3 3 0 1 0 0 6 3 3 0 0 0 0-6Zm12 0a3 3 0 1 0 0 6 3 3 0 0 0 0-6Zm12 0a3 3 0 1 0 0 6 3 3 0 0 0 0-6Zm12 0a3 3 0 1 0 0 6 3 3 0 0 0 0-6Zm12 0a3 3 0 1 0 0 6 3 3 0 0 0 0-6Zm12 0a3 3 0 1 0 0 6 3 3 0 0 0 0-6Zm12 0a3 3 0 1 0 0 6 3 3 0 0 0 0-6Zm12 0a3 3 0 1 0 0 6 3 3 0 0 0 0-6Zm12 0a3 3 0 1 0 0 6 3 3 0 0 0 0-6Zm12 0a3 3 0 1 0 0 6 3 3 0 0 0 0-6Zm-132-12a3 3 0 1 0 0 6 3 3 0 0 0 0-6Zm12 0a3 3 0 1 0 0 6 3 3 0 0 0 0-6Zm12 0a3 3 0 1 0 0 6 3 3 0 0 0 0-6Zm12 0a3 3 0 1 0 0 6 3 3 0 0 0 0-6Zm12 0a3 3 0 1 0 0 6 3 3 0 0 0 0-6Zm12 0a3 3 0 1 0 0 6 3 3 0 0 0 0-6Zm12 0a3 3 0 1 0 0 6 3 3 0 0 0 0-6Zm12 0a3 3 0 1 0 0 6 3 3 0 0 0 0-6Zm12 0a3 3 0 1 0 0 6 3 3 0 0 0 0-6Zm12 0a3 3 0 1 0 0 6 3 3 0 0 0 0-6Zm12 0a3 3 0 1 0 0 6 3 3 0 0 0 0-6Zm12 0a3 3 0 1 0 0 6 3 3 0 0 0 0-6Zm-120-12a3 3 0 1 0 0 6 3 3 0 0 0 0-6Zm12 0a3 3 0 1 0 0 6 3 3 0 0 0 0-6Zm12 0a3 3 0 1 0 0 6 3 3 0 0 0 0-6Zm12 0a3 3 0 1 0 0 6 3 3 0 0 0 0-6Zm12 0a3 3 0 1 0 0 6 3 3 0 0 0 0-6Zm12 0a3 3 0 1 0 0 6 3 3 0 0 0 0-6Zm12 0a3 3 0 1 0 0 6 3 3 0 0 0 0-6Zm12 0a3 3 0 1 0 0 6 3 3 0 0 0 0-6Zm12 0a3 3 0 1 0 0 6 3 3 0 0 0 0-6Zm12 0a3 3 0 1 0 0 6 3 3 0 0 0 0-6Zm12 0a3 3 0 1 0 0 6 3 3 0 0 0 0-6Zm-108-12a3 3 0 1 0 0 6 3 3 0 0 0 0-6Zm12 0a3 3 0 1 0 0 6 3 3 0 0 0 0-6Zm12 0a3 3 0 1 0 0 6 3 3 0 0 0 0-6Zm12 0a3 3 0 1 0 0 6 3 3 0 0 0 0-6Zm12 0a3 3 0 1 0 0 6 3 3 0 0 0 0-6Zm12 0a3 3 0 1 0 0 6 3 3 0 0 0 0-6Zm12 0a3 3 0 1 0 0 6 3 3 0 0 0 0-6Zm12 0a3 3 0 1 0 0 6 3 3 0 0 0 0-6Zm12 0a3 3 0 1 0 0 6 3 3 0 0 0 0-6Zm12 0a3 3 0 1 0 0 6 3 3 0 0 0 0-6Zm-96-12a3 3 0 1 0 0 6 3 3 0 0 0 0-6Zm12 0a3 3 0 1 0 0 6 3 3 0 0 0 0-6Zm12 0a3 3 0 1 0 0 6 3 3 0 0 0 0-6Zm12 0a3 3 0 1 0 0 6 3 3 0 0 0 0-6Zm12 0a3 3 0 1 0 0 6 3 3 0 0 0 0-6Zm12 0a3 3 0 1 0 0 6 3 3 0 0 0 0-6Zm12 0a3 3 0 1 0 0 6 3 3 0 0 0 0-6Zm12 0a3 3 0 1 0 0 6 3 3 0 0 0 0-6Zm12 0a3 3 0 1 0 0 6 3 3 0 0 0 0-6Zm-84-12a3 3 0 1 0 0 6 3 3 0 0 0 0-6Zm12 0a3 3 0 1 0 0 6 3 3 0 0 0 0-6Zm12 0a3 3 0 1 0 0 6 3 3 0 0 0 0-6Zm12 0a3 3 0 1 0 0 6 3 3 0 0 0 0-6Zm12 0a3 3 0 1 0 0 6 3 3 0 0 0 0-6Zm12 0a3 3 0 1 0 0 6 3 3 0 0 0 0-6Zm12 0a3 3 0 1 0 0 6 3 3 0 0 0 0-6Zm12 0a3 3 0 1 0 0 6 3 3 0 0 0 0-6Zm-72-12a3 3 0 1 0 0 6 3 3 0 0 0 0-6Zm12 0a3 3 0 1 0 0 6 3 3 0 0 0 0-6Zm12 0a3 3 0 1 0 0 6 3 3 0 0 0 0-6Zm12 0a3 3 0 1 0 0 6 3 3 0 0 0 0-6Zm12 0a3 3 0 1 0 0 6 3 3 0 0 0 0-6Zm12 0a3 3 0 1 0 0 6 3 3 0 0 0 0-6Zm12 0a3 3 0 1 0 0 6 3 3 0 0 0 0-6Zm-60-12a3 3 0 1 0 0 6 3 3 0 0 0 0-6Zm12 0a3 3 0 1 0 0 6 3 3 0 0 0 0-6Zm12 0a3 3 0 1 0 0 6 3 3 0 0 0 0-6Zm12 0a3 3 0 1 0 0 6 3 3 0 0 0 0-6Zm12 0a3 3 0 1 0 0 6 3 3 0 0 0 0-6Zm12 0a3 3 0 1 0 0 6 3 3 0 0 0 0-6Zm-48-12a3 3 0 1 0 0 6 3 3 0 0 0 0-6Zm12 0a3 3 0 1 0 0 6 3 3 0 0 0 0-6Zm12 0a3 3 0 1 0 0 6 3 3 0 0 0 0-6Zm12 0a3 3 0 1 0 0 6 3 3 0 0 0 0-6Zm12 0a3 3 0 1 0 0 6 3 3 0 0 0 0-6Zm-36-12a3 3 0 1 0 0 6 3 3 0 0 0 0-6Zm12 0a3 3 0 1 0 0 6 3 3 0 0 0 0-6Zm12 0a3 3 0 1 0 0 6 3 3 0 0 0 0-6Zm12 0a3 3 0 1 0 0 6 3 3 0 0 0 0-6Zm-24-12a3 3 0 1 0 0 6 3 3 0 0 0 0-6Zm12 0a3 3 0 1 0 0 6 3 3 0 0 0 0-6Zm12 0a3 3 0 1 0 0 6 3 3 0 0 0 0-6Zm-12-12a3 3 0 1 0 0 6 3 3 0 0 0 0-6Zm12 0a3 3 0 1 0 0 6 3 3 0 0 0 0-6Zm0-12a3 3 0 1 0 0 6 3 3 0 0 0 0-6ZM9 102a3 3 0 1 0 0 6 3 3 0 0 0 0-6Zm0-12a3 3 0 1 0 0 6 3 3 0 0 0 0-6Zm12 0a3 3 0 1 0 0 6 3 3 0 0 0 0-6ZM9 78a3 3 0 1 0 0 6 3 3 0 0 0 0-6Zm12 0a3 3 0 1 0 0 6 3 3 0 0 0 0-6Zm12 0a3 3 0 1 0 0 6 3 3 0 0 0 0-6ZM9 66a3 3 0 1 0 0 6 3 3 0 0 0 0-6Zm12 0a3 3 0 1 0 0 6 3 3 0 0 0 0-6Zm12 0a3 3 0 1 0 0 6 3 3 0 0 0 0-6Zm12 0a3 3 0 1 0 0 6 3 3 0 0 0 0-6ZM9 54a3 3 0 1 0 0 6 3 3 0 0 0 0-6Zm12 0a3 3 0 1 0 0 6 3 3 0 0 0 0-6Zm12 0a3 3 0 1 0 0 6 3 3 0 0 0 0-6Zm12 0a3 3 0 1 0 0 6 3 3 0 0 0 0-6Zm12 0a3 3 0 1 0 0 6 3 3 0 0 0 0-6ZM9 42a3 3 0 1 0 0 6 3 3 0 0 0 0-6Zm12 0a3 3 0 1 0 0 6 3 3 0 0 0 0-6Zm12 0a3 3 0 1 0 0 6 3 3 0 0 0 0-6Zm12 0a3 3 0 1 0 0 6 3 3 0 0 0 0-6Zm12 0a3 3 0 1 0 0 6 3 3 0 0 0 0-6Zm12 0a3 3 0 1 0 0 6 3 3 0 0 0 0-6ZM9 30a3 3 0 1 0 0 6 3 3 0 0 0 0-6Zm12 0a3 3 0 1 0 0 6 3 3 0 0 0 0-6Zm12 0a3 3 0 1 0 0 6 3 3 0 0 0 0-6Zm12 0a3 3 0 1 0 0 6 3 3 0 0 0 0-6Zm12 0a3 3 0 1 0 0 6 3 3 0 0 0 0-6Zm12 0a3 3 0 1 0 0 6 3 3 0 0 0 0-6Zm12 0a3 3 0 1 0 0 6 3 3 0 0 0 0-6ZM9 18a3 3 0 1 0 0 6 3 3 0 0 0 0-6Zm12 0a3 3 0 1 0 0 6 3 3 0 0 0 0-6Zm12 0a3 3 0 1 0 0 6 3 3 0 0 0 0-6Zm12 0a3 3 0 1 0 0 6 3 3 0 0 0 0-6Zm12 0a3 3 0 1 0 0 6 3 3 0 0 0 0-6Zm12 0a3 3 0 1 0 0 6 3 3 0 0 0 0-6Zm12 0a3 3 0 1 0 0 6 3 3 0 0 0 0-6Zm12 0a3 3 0 1 0 0 6 3 3 0 0 0 0-6ZM9 6a3 3 0 1 0 0 6 3 3 0 0 0 0-6Zm12 0a3 3 0 1 0 0 6 3 3 0 0 0 0-6Zm12 0a3 3 0 1 0 0 6 3 3 0 0 0 0-6Zm12 0a3 3 0 1 0 0 6 3 3 0 0 0 0-6Zm12 0a3 3 0 1 0 0 6 3 3 0 0 0 0-6Zm12 0a3 3 0 1 0 0 6 3 3 0 0 0 0-6Zm12 0a3 3 0 1 0 0 6 3 3 0 0 0 0-6Zm12 0a3 3 0 1 0 0 6 3 3 0 0 0 0-6Zm12 0a3 3 0 1 0 0 6 3 3 0 0 0 0-6Z"/></svg>